<?xml version="1.0" standalone="no"?>
<!DOCTYPE svg PUBLIC "-//W3C//DTD SVG 20010904//EN"
 "http://www.w3.org/TR/2001/REC-SVG-20010904/DTD/svg10.dtd">
<svg version="1.0" xmlns="http://www.w3.org/2000/svg"
 width="103.000000pt" height="58.000000pt" viewBox="0 0 103.000000 58.000000"
 preserveAspectRatio="xMidYMid meet">

<g transform="translate(0.000000,58.000000) scale(0.100000,-0.100000)"
fill="#000000" stroke="none">
<path d="M0 290 l0 -290 515 0 515 0 0 86 c0 65 -3 83 -13 78 -9 -6 -9 -5 0 7
8 9 12 77 13 212 l1 197 -516 0 -515 0 0 -290z m773 252 c34 -30 21 -58 -54
-118 l-71 -56 -29 33 c-15 19 -27 39 -26 45 1 6 31 36 67 66 65 56 78 59 113
30z m-623 -2 c0 -5 -7 -10 -15 -10 -8 0 -15 -4 -15 -9 0 -10 -30 -24 -38 -17
-2 3 11 14 29 25 39 24 39 24 39 11z m756 1 c-3 -5 4 -11 17 -15 25 -6 108
-86 89 -86 -7 0 -12 5 -12 11 0 5 -5 7 -10 4 -8 -5 -8 -11 -1 -19 12 -15 5
-26 -17 -26 -12 0 -12 3 -2 15 7 8 9 15 5 15 -4 0 -2 6 4 14 8 10 8 16 -2 25
-8 6 -18 7 -22 3 -5 -4 -5 -2 -1 5 3 6 -1 16 -10 21 -11 6 -24 2 -44 -16 -16
-14 -27 -30 -23 -34 3 -5 12 -3 21 5 10 8 24 17 32 21 8 4 5 -1 -7 -10 -24
-17 -33 -51 -10 -38 6 4 9 4 5 -1 -9 -9 11 -37 21 -30 4 2 8 -3 8 -11 0 -9
-20 4 -48 32 -27 26 -46 51 -43 55 2 4 0 10 -6 14 -17 11 -11 22 23 39 38 18
40 19 33 7z m-646 -112 l30 -37 -24 -16 c-24 -15 -25 -15 -23 7 0 12 5 25 10
28 6 4 -9 26 -33 50 -23 24 -39 36 -36 26 4 -11 2 -16 -5 -12 -5 4 -9 14 -7
23 1 10 -1 24 -6 32 -9 16 46 -43 94 -101z m154 82 c14 -15 14 -20 3 -29 -20
-17 -63 14 -46 34 15 18 23 18 43 -5z m-289 -36 c6 0 10 -7 10 -15 1 -21 35
-71 45 -65 5 3 11 -4 15 -15 3 -11 9 -19 13 -19 19 3 25 -2 13 -10 -13 -8 -48
28 -121 123 -13 18 -13 19 0 11 8 -6 20 -10 25 -10z m370 -95 c3 -5 1 -10 -4
-10 -6 0 -11 5 -11 10 0 6 2 10 4 10 3 0 8 -4 11 -10z m369 -21 c-2 -4 0 -11
6 -14 8 -5 7 -12 -2 -23 -11 -13 -11 -14 2 -7 13 8 13 7 1 -8 -17 -21 -20 -21
-51 2 -23 18 -24 20 -8 38 16 17 62 28 52 12z m-464 -19 c0 -5 -11 -10 -25
-10 -32 0 -34 -29 -2 -31 l22 -2 -22 -4 c-34 -6 -30 -41 5 -46 22 -3 20 -4
-10 -6 l-38 -1 0 55 0 55 35 0 c19 0 35 -4 35 -10z m55 0 c3 -5 -1 -10 -9 -10
-21 0 -20 -9 4 -35 12 -13 18 -29 14 -38 -7 -19 -54 -24 -54 -6 0 6 7 9 15 6
25 -10 28 13 5 38 -19 20 -21 27 -10 40 14 17 26 19 35 5z m89 -16 c9 -23 -12
-54 -35 -54 -15 0 -19 -5 -15 -15 3 -8 1 -15 -4 -15 -6 0 -10 23 -10 50 0 48
1 50 29 50 17 0 31 -6 35 -16z m61 -4 c-3 -11 -2 -20 3 -20 6 0 13 -8 17 -17
8 -23 -28 -53 -55 -46 -29 8 -25 22 6 20 32 -2 45 22 16 30 -13 3 -19 10 -15
20 3 8 0 19 -8 24 -10 6 -6 9 14 9 24 0 27 -3 22 -20z m83 8 c9 -9 7 -19 -9
-45 l-21 -33 23 0 c16 0 20 -3 12 -11 -6 -6 -25 -9 -42 -7 l-32 3 30 35 c35
41 39 54 11 47 -20 -5 -26 3 -13 16 10 11 28 8 41 -5z m-577 -20 c0 -10 2 -10
6 0 10 24 20 11 19 -25 -1 -36 -3 -38 -37 -41 -34 -3 -37 -1 -42 30 -2 18 -3
36 0 41 7 12 53 8 54 -5z m109 -43 c0 -8 -4 -15 -10 -15 -5 0 -10 7 -10 15 0
8 5 15 10 15 6 0 10 -7 10 -15z m780 -23 c0 -13 -12 -22 -22 -16 -10 6 -1 24
13 24 5 0 9 -4 9 -8z m-30 -43 c0 -11 -11 -11 -29 0 -7 5 -10 14 -6 20 5 9 10
9 21 0 8 -6 14 -15 14 -20z m-335 -15 c20 -15 20 -15 -4 -35 -28 -23 -30 -23
-56 -3 -20 15 -20 15 4 35 28 23 30 23 56 3z m287 -37 l76 -53 -23 -22 c-20
-19 -24 -20 -35 -7 -7 8 -9 15 -5 15 4 0 1 8 -6 17 -12 15 -12 16 3 10 12 -4
15 -2 12 8 -6 15 -75 16 -73 1 4 -33 -4 -35 -32 -7 -17 17 -36 31 -42 31 -7 0
-1 -10 13 -21 30 -24 -3 -10 -35 15 l-20 16 20 -7 c18 -6 19 -5 5 12 -8 10
-10 16 -4 12 6 -4 19 2 29 13 10 11 23 20 29 20 6 0 46 -24 88 -53z m-690 -85
c-6 -16 -7 -16 -10 1 -2 9 -7 17 -12 17 -5 0 -7 -6 -4 -14 7 -18 -21 -15 -39
4 -10 10 -9 11 2 5 11 -6 13 -4 8 9 -5 14 -3 17 8 12 8 -3 14 -2 14 2 -4 23 4
24 21 4 11 -14 16 -30 12 -40z m269 5 c-1 -4 -3 -7 -6 -7 -3 0 -9 0 -14 0 -5
0 -11 7 -14 14 -5 11 -1 13 14 7 11 -4 20 -10 20 -14z m432 -28 c-6 -6 -17 -8
-24 -3 -9 5 -8 9 7 14 23 9 31 3 17 -11z"/>
<path d="M675 509 c-29 -26 -33 -34 -23 -46 33 -40 92 -30 101 16 5 25 -15 61
-34 61 -5 0 -24 -14 -44 -31z"/>
<path d="M500 311 c0 -12 6 -21 16 -21 9 0 14 7 12 17 -5 25 -28 28 -28 4z"/>
<path d="M890 140 c0 -5 5 -10 11 -10 5 0 7 5 4 10 -3 6 -8 10 -11 10 -2 0 -4
-4 -4 -10z"/>
</g>
</svg>
